<mxfile host="app.diagrams.net" agent="Mozilla/5.0 (Windows NT 10.0; Win64; x64) AppleWebKit/537.36 (KHTML, like Gecko) Chrome/131.0.0.0 Safari/537.36" version="26.0.6">
  <diagram name="PÃ¡gina-1" id="23yknfgsDBwT977EQwRh">
    <mxGraphModel dx="1311" dy="696" grid="1" gridSize="10" guides="1" tooltips="1" connect="1" arrows="1" fold="1" page="1" pageScale="1" pageWidth="827" pageHeight="1169" math="0" shadow="0">
      <root>
        <mxCell id="0" />
        <mxCell id="1" parent="0" />
        <mxCell id="c_VnG8BbDZ4toqc6pfVG-24" value="" style="edgeStyle=orthogonalEdgeStyle;rounded=0;orthogonalLoop=1;jettySize=auto;html=1;entryX=0.496;entryY=0.214;entryDx=0;entryDy=0;entryPerimeter=0;" edge="1" parent="1" source="c_VnG8BbDZ4toqc6pfVG-16" target="c_VnG8BbDZ4toqc6pfVG-20">
          <mxGeometry relative="1" as="geometry" />
        </mxCell>
        <mxCell id="c_VnG8BbDZ4toqc6pfVG-16" value="INICIO" style="strokeWidth=2;html=1;shape=mxgraph.flowchart.start_1;whiteSpace=wrap;" vertex="1" parent="1">
          <mxGeometry x="350" y="20" width="100" height="60" as="geometry" />
        </mxCell>
        <mxCell id="c_VnG8BbDZ4toqc6pfVG-28" value="" style="edgeStyle=orthogonalEdgeStyle;rounded=0;orthogonalLoop=1;jettySize=auto;html=1;" edge="1" parent="1" source="c_VnG8BbDZ4toqc6pfVG-17" target="c_VnG8BbDZ4toqc6pfVG-21">
          <mxGeometry relative="1" as="geometry" />
        </mxCell>
        <mxCell id="c_VnG8BbDZ4toqc6pfVG-17" value="&lt;div&gt;&lt;br&gt;&lt;/div&gt;RENDA" style="html=1;strokeWidth=2;shape=manualInput;whiteSpace=wrap;rounded=1;size=26;arcSize=11;" vertex="1" parent="1">
          <mxGeometry x="350" y="340" width="100" height="60" as="geometry" />
        </mxCell>
        <mxCell id="c_VnG8BbDZ4toqc6pfVG-27" value="" style="edgeStyle=orthogonalEdgeStyle;rounded=0;orthogonalLoop=1;jettySize=auto;html=1;entryX=0.505;entryY=0.221;entryDx=0;entryDy=0;entryPerimeter=0;" edge="1" parent="1" source="c_VnG8BbDZ4toqc6pfVG-18" target="c_VnG8BbDZ4toqc6pfVG-17">
          <mxGeometry relative="1" as="geometry">
            <mxPoint x="400" y="470" as="targetPoint" />
          </mxGeometry>
        </mxCell>
        <mxCell id="c_VnG8BbDZ4toqc6pfVG-18" value="&lt;div&gt;&lt;br&gt;&lt;/div&gt;TIPO" style="html=1;strokeWidth=2;shape=manualInput;whiteSpace=wrap;rounded=1;size=26;arcSize=11;" vertex="1" parent="1">
          <mxGeometry x="350" y="260" width="100" height="60" as="geometry" />
        </mxCell>
        <mxCell id="c_VnG8BbDZ4toqc6pfVG-33" value="" style="edgeStyle=orthogonalEdgeStyle;rounded=0;orthogonalLoop=1;jettySize=auto;html=1;entryX=0.506;entryY=0.206;entryDx=0;entryDy=0;entryPerimeter=0;" edge="1" parent="1" source="c_VnG8BbDZ4toqc6pfVG-19" target="c_VnG8BbDZ4toqc6pfVG-18">
          <mxGeometry relative="1" as="geometry" />
        </mxCell>
        <mxCell id="c_VnG8BbDZ4toqc6pfVG-19" value="ANO" style="html=1;strokeWidth=2;shape=manualInput;whiteSpace=wrap;rounded=1;size=26;arcSize=11;" vertex="1" parent="1">
          <mxGeometry x="350" y="180" width="100" height="60" as="geometry" />
        </mxCell>
        <mxCell id="c_VnG8BbDZ4toqc6pfVG-25" value="" style="edgeStyle=orthogonalEdgeStyle;rounded=0;orthogonalLoop=1;jettySize=auto;html=1;entryX=0.503;entryY=0.204;entryDx=0;entryDy=0;entryPerimeter=0;" edge="1" parent="1" source="c_VnG8BbDZ4toqc6pfVG-20" target="c_VnG8BbDZ4toqc6pfVG-19">
          <mxGeometry relative="1" as="geometry" />
        </mxCell>
        <mxCell id="c_VnG8BbDZ4toqc6pfVG-20" value="NOME" style="html=1;strokeWidth=2;shape=manualInput;whiteSpace=wrap;rounded=1;size=26;arcSize=11;" vertex="1" parent="1">
          <mxGeometry x="350" y="100" width="100" height="60" as="geometry" />
        </mxCell>
        <mxCell id="c_VnG8BbDZ4toqc6pfVG-29" value="" style="edgeStyle=orthogonalEdgeStyle;rounded=0;orthogonalLoop=1;jettySize=auto;html=1;" edge="1" parent="1" source="c_VnG8BbDZ4toqc6pfVG-21" target="c_VnG8BbDZ4toqc6pfVG-23">
          <mxGeometry relative="1" as="geometry" />
        </mxCell>
        <mxCell id="c_VnG8BbDZ4toqc6pfVG-21" value="NOME&lt;div&gt;ANO&lt;/div&gt;&lt;div&gt;TIPO&lt;/div&gt;&lt;div&gt;RENDA&lt;/div&gt;" style="strokeWidth=2;html=1;shape=mxgraph.flowchart.display;whiteSpace=wrap;" vertex="1" parent="1">
          <mxGeometry x="350" y="430" width="100" height="60" as="geometry" />
        </mxCell>
        <mxCell id="c_VnG8BbDZ4toqc6pfVG-23" value="FIM" style="strokeWidth=2;html=1;shape=mxgraph.flowchart.start_1;whiteSpace=wrap;" vertex="1" parent="1">
          <mxGeometry x="350" y="515" width="100" height="60" as="geometry" />
        </mxCell>
      </root>
    </mxGraphModel>
  </diagram>
</mxfile>
